<!--?xml version="1.0" encoding="utf-8"?-->
<!-- Svg Vector Icons : http://www.onlinewebfonts.com/icon -->

<svg version="1.1" xmlns="http://www.w3.org/2000/svg" xmlns:xlink="http://www.w3.org/1999/xlink" x="0px" y="0px" viewBox="0 0 256 256" enable-background="new 0 0 256 256" xml:space="preserve">
<metadata> Svg Vector Icons : http://www.onlinewebfonts.com/icon </metadata>
<g><g><g><path fill="#f7d601" data-title="Layer 0" xs="0" d="M119.9,10.7c-21,4.5-40.1,22.7-54.8,52.1C53,87.1,46.2,113.3,45.2,140.2c-0.4,10.1,0.3,17.8,2.4,27.1c4.5,20.3,14.9,40.4,28,54.2l4.5,4.8v8.5c0,8.4,0.1,8.6,1.4,9.9l1.3,1.4h45.4h45.4l1.3-1.4c1.3-1.3,1.4-1.5,1.4-9.9v-8.5l4.5-4.8c14.3-15.1,24.8-36.7,29.2-60.2c1.3-7.1,1.3-26.2-0.1-36.4c-2.8-22.1-9.1-42.8-18.7-62.2c-13.7-27.5-31.5-45.3-50.8-51.1C134.4,9.9,125.3,9.5,119.9,10.7z M139.8,20.7c2.6,0.9,6.7,2.8,9.1,4.2c28.2,17.1,51.5,67.3,53.4,115.1l0.4,9.1l-3.6,0.7c-5.6,1-5.4,1.1-5.4-2.6c0-2.8-0.2-3.6-1.4-4.6c-1.7-1.8-4.3-1.8-6,0c-1.2,1.1-1.4,1.8-1.4,5.5c0,2.2-0.2,4.1-0.4,4.1c-0.3,0-3.6,0.4-7.5,0.8c-10.7,1.2-9.6,1.7-9.6-4.1c0-4.5-0.1-5.1-1.4-6.3c-1.7-1.8-4.3-1.8-6,0c-1.3,1.2-1.4,1.8-1.4,6.5v5.1l-1.5,0.3c-0.9,0.2-6.8,0.4-13.1,0.7l-11.6,0.3v-5.8c0-5.5-0.1-5.9-1.4-7.2c-1.7-1.8-4.3-1.8-6,0c-1.3,1.3-1.4,1.7-1.4,7.2v5.8l-8-0.3c-4.5-0.2-10.4-0.5-13.1-0.7l-5.1-0.3v-5.1c0-4.8-0.1-5.3-1.4-6.5c-0.8-0.9-2-1.4-3-1.4c-1,0-2.2,0.5-3,1.4c-1.3,1.2-1.4,1.8-1.4,6.2v4.9l-1.5-0.2c-0.9-0.1-4.4-0.5-7.8-0.8c-8.8-0.9-8.2-0.5-8.2-5c0-3.3-0.2-4-1.4-5.1c-1.7-1.8-4.3-1.8-6,0c-1.1,1.1-1.4,1.9-1.4,4.6c0,3-0.1,3.3-0.9,3.1c-0.9-0.3-7.2-1.4-7.7-1.4c-0.6,0,0.5-18.3,1.5-25.3C62.2,75.9,86.7,33,113.5,21.7C122.3,18,131.2,17.7,139.8,20.7z M62.6,159.1c20.4,3.3,40,4.6,67.4,4.6c26.7,0,45.4-1.3,63.8-4.3c8.6-1.4,8-2,6.4,5.3c-3.9,17.8-13.5,36.9-25,49.9l-4.3,4.9l-42.7,0.2l-42.7,0.1l-3.8-4.2c-12.2-13.6-21.4-31.5-25.6-50c-1.4-6.3-1.6-7.7-0.8-7.7C55.7,158,59,158.5,62.6,159.1z M167.5,232.9v4.4h-39.4H88.8v-4.4v-4.4h39.4h39.4V232.9z"/></g></g></g>
</svg>